<svg xmlns="http://www.w3.org/2000/svg" xmlns:xlink="http://www.w3.org/1999/xlink" width="150" zoomAndPan="magnify" viewBox="0 0 112.5 112.499997" height="150" preserveAspectRatio="xMidYMid meet" version="1.0"><defs><clipPath id="6993b63641"><path d="M 2 16.007812 L 111 16.007812 L 111 101.507812 L 2 101.507812 Z M 2 16.007812 " clip-rule="nonzero"/></clipPath><clipPath id="f8f721e7dc"><path d="M 64.605469 64.71875 C 71.65625 64.71875 74.792969 70.597656 79.496094 75.300781 C 81.847656 77.652344 86.15625 77.652344 88.507812 75.300781 L 99.871094 63.933594 C 102.222656 61.582031 102.222656 57.273438 99.871094 54.921875 L 88.507812 43.558594 C 84.199219 39.246094 79.105469 36.503906 82.628906 33.761719 C 84.199219 32.585938 85.375 31.800781 88.117188 31.800781 C 92.425781 31.800781 93.996094 35.328125 97.128906 38.070312 C 98.695312 39.640625 101.046875 39.640625 102.617188 38.070312 L 109.667969 31.019531 C 111.238281 29.449219 111.238281 27.097656 109.667969 25.53125 L 102.617188 18.476562 C 101.046875 16.910156 98.695312 16.910156 97.128906 18.476562 C 94.386719 21.222656 92.035156 25.140625 88.117188 25.140625 C 84.199219 25.140625 81.847656 21.222656 79.105469 18.476562 C 77.535156 16.910156 75.183594 16.910156 73.617188 18.476562 L 66.5625 25.53125 C 64.996094 27.097656 64.996094 29.449219 66.5625 31.019531 C 72.441406 36.894531 82.238281 40.421875 77.535156 45.910156 C 74.007812 50.21875 70.089844 54.921875 64.605469 54.921875 C 57.941406 54.921875 54.023438 48.261719 49.320312 43.558594 C 46.96875 41.207031 42.660156 41.207031 40.308594 43.558594 L 28.945312 54.921875 C 26.59375 57.273438 26.59375 61.582031 28.945312 63.933594 L 38.347656 73.339844 L 40.308594 75.300781 C 42.660156 77.652344 46.96875 77.652344 49.320312 75.300781 C 54.414062 70.203125 57.160156 64.71875 64.605469 64.71875 Z M 52.847656 20.4375 L 74.792969 42.382812 C 72.050781 45.910156 68.132812 50.21875 64.605469 50.21875 C 59.902344 50.21875 55.199219 43.164062 52.066406 40.03125 C 48.144531 36.113281 41.484375 36.113281 37.171875 40.03125 L 25.808594 51.394531 C 21.890625 55.3125 21.890625 61.976562 25.808594 66.285156 L 37.171875 77.652344 C 41.09375 81.570312 47.753906 81.570312 52.066406 77.652344 C 55.589844 74.125 59.117188 68.246094 64.605469 68.246094 C 68.914062 68.246094 72.050781 72.164062 74.792969 75.691406 L 52.847656 97.636719 C 48.144531 102.339844 40.699219 102.339844 36 97.636719 L 5.824219 67.460938 C 1.121094 62.757812 1.121094 55.3125 5.824219 50.613281 L 36 20.4375 C 40.699219 15.734375 48.144531 15.734375 52.847656 20.4375 Z M 92.820312 -2.683594 L 97.128906 1.628906 C 98.304688 2.804688 100.265625 2.804688 101.441406 1.628906 L 105.75 -2.683594 C 106.925781 -3.859375 106.925781 -5.816406 105.75 -6.992188 L 101.441406 -11.304688 C 100.265625 -12.480469 98.304688 -12.480469 97.128906 -11.304688 L 92.820312 -6.992188 C 91.644531 -5.816406 91.644531 -3.859375 92.820312 -2.683594 Z M 92.820312 -2.683594 " clip-rule="evenodd"/></clipPath></defs><g clip-path="url(#6993b63641)"><g clip-path="url(#f8f721e7dc)"><path fill="#ffffff" d="M 1.121094 16.007812 L 1.121094 101.507812 L 111.238281 101.507812 L 111.238281 16.007812 Z M 1.121094 16.007812 " fill-opacity="1" fill-rule="nonzero"/></g></g></svg>