<svg xmlns="http://www.w3.org/2000/svg" xmlns:xlink="http://www.w3.org/1999/xlink" width="349" zoomAndPan="magnify" viewBox="0 0 261.75 211.499994" height="282" preserveAspectRatio="xMidYMid meet" version="1.0"><defs><filter x="0%" y="0%" width="100%" height="100%" id="0975b41a31"><feColorMatrix values="0 0 0 0 1 0 0 0 0 1 0 0 0 0 1 0 0 0 1 0" color-interpolation-filters="sRGB"/></filter><g/><clipPath id="d93a440cd8"><path d="M 6.570312 45.773438 L 9 45.773438 L 9 49 L 6.570312 49 Z M 6.570312 45.773438 " clip-rule="nonzero"/></clipPath><clipPath id="d5a0e9896a"><path d="M 17 45.773438 L 21 45.773438 L 21 49 L 17 49 Z M 17 45.773438 " clip-rule="nonzero"/></clipPath><clipPath id="68af444a58"><path d="M 29 45.773438 L 32 45.773438 L 32 49 L 29 49 Z M 29 45.773438 " clip-rule="nonzero"/></clipPath><clipPath id="9c2657c75c"><path d="M 40 45.773438 L 44 45.773438 L 44 49 L 40 49 Z M 40 45.773438 " clip-rule="nonzero"/></clipPath><clipPath id="ba19765f27"><path d="M 52 45.773438 L 54.503906 45.773438 L 54.503906 49 L 52 49 Z M 52 45.773438 " clip-rule="nonzero"/></clipPath><clipPath id="6d9445a80f"><path d="M 6.570312 57 L 9 57 L 9 60 L 6.570312 60 Z M 6.570312 57 " clip-rule="nonzero"/></clipPath><clipPath id="763c3e30a9"><path d="M 52 57 L 54.503906 57 L 54.503906 60 L 52 60 Z M 52 57 " clip-rule="nonzero"/></clipPath><clipPath id="10f8a1bc83"><path d="M 6.570312 68 L 9 68 L 9 71 L 6.570312 71 Z M 6.570312 68 " clip-rule="nonzero"/></clipPath><clipPath id="b6218d3112"><path d="M 52 68 L 54.503906 68 L 54.503906 71 L 52 71 Z M 52 68 " clip-rule="nonzero"/></clipPath><clipPath id="6571e945b9"><path d="M 6.570312 80 L 9 80 L 9 83 L 6.570312 83 Z M 6.570312 80 " clip-rule="nonzero"/></clipPath><clipPath id="3361eca963"><path d="M 52 80 L 54.503906 80 L 54.503906 83 L 52 83 Z M 52 80 " clip-rule="nonzero"/></clipPath><clipPath id="61f98f1922"><path d="M 6.570312 91 L 9 91 L 9 93.703125 L 6.570312 93.703125 Z M 6.570312 91 " clip-rule="nonzero"/></clipPath><clipPath id="322369f45e"><path d="M 17 91 L 21 91 L 21 93.703125 L 17 93.703125 Z M 17 91 " clip-rule="nonzero"/></clipPath><clipPath id="0571d00ed8"><path d="M 29 91 L 32 91 L 32 93.703125 L 29 93.703125 Z M 29 91 " clip-rule="nonzero"/></clipPath><clipPath id="9f9f2faabc"><path d="M 40 91 L 44 91 L 44 93.703125 L 40 93.703125 Z M 40 91 " clip-rule="nonzero"/></clipPath><clipPath id="e804bed32a"><path d="M 52 91 L 54.503906 91 L 54.503906 93.703125 L 52 93.703125 Z M 52 91 " clip-rule="nonzero"/></clipPath><clipPath id="f56e839557"><path d="M 200.792969 142 L 204 142 L 204 145 L 200.792969 145 Z M 200.792969 142 " clip-rule="nonzero"/></clipPath><clipPath id="299b2f7633"><path d="M 246 142 L 248.726562 142 L 248.726562 145 L 246 145 Z M 246 142 " clip-rule="nonzero"/></clipPath><clipPath id="136b1d4367"><path d="M 200.792969 153 L 204 153 L 204 156 L 200.792969 156 Z M 200.792969 153 " clip-rule="nonzero"/></clipPath><clipPath id="863a138412"><path d="M 246 153 L 248.726562 153 L 248.726562 156 L 246 156 Z M 246 153 " clip-rule="nonzero"/></clipPath><clipPath id="91fac51a8e"><path d="M 200.792969 164 L 204 164 L 204 168 L 200.792969 168 Z M 200.792969 164 " clip-rule="nonzero"/></clipPath><clipPath id="4518f07b1a"><path d="M 246 164 L 248.726562 164 L 248.726562 168 L 246 168 Z M 246 164 " clip-rule="nonzero"/></clipPath><clipPath id="a356446840"><path d="M 200.792969 176 L 204 176 L 204 179 L 200.792969 179 Z M 200.792969 176 " clip-rule="nonzero"/></clipPath><clipPath id="211696e422"><path d="M 246 176 L 248.726562 176 L 248.726562 179 L 246 179 Z M 246 176 " clip-rule="nonzero"/></clipPath><clipPath id="e07bf69728"><path d="M 200.792969 187 L 204 187 L 204 189.929688 L 200.792969 189.929688 Z M 200.792969 187 " clip-rule="nonzero"/></clipPath><clipPath id="b955a6585a"><path d="M 212 187 L 215 187 L 215 189.929688 L 212 189.929688 Z M 212 187 " clip-rule="nonzero"/></clipPath><clipPath id="d5aa0190eb"><path d="M 223 187 L 226 187 L 226 189.929688 L 223 189.929688 Z M 223 187 " clip-rule="nonzero"/></clipPath><clipPath id="e50bd76699"><path d="M 235 187 L 238 187 L 238 189.929688 L 235 189.929688 Z M 235 187 " clip-rule="nonzero"/></clipPath><clipPath id="38f26d2b42"><path d="M 246 187 L 248.726562 187 L 248.726562 189.929688 L 246 189.929688 Z M 246 187 " clip-rule="nonzero"/></clipPath><mask id="f8c5f66d8d"><g filter="url(#0975b41a31)"><rect x="-26.175" width="314.1" fill="#000000" y="-21.149999" height="253.799993" fill-opacity="0.4784"/></g></mask><clipPath id="558fcfc59c"><path d="M 1.746094 2.0625 L 63.90625 2.0625 L 63.90625 64 L 1.746094 64 Z M 1.746094 2.0625 " clip-rule="nonzero"/></clipPath><clipPath id="c7cc8b4ad8"><rect x="0" width="66" y="0" height="66"/></clipPath><mask id="10194f86dc"><g filter="url(#0975b41a31)"><rect x="-26.175" width="314.1" fill="#000000" y="-21.149999" height="253.799993" fill-opacity="0.4784"/></g></mask><clipPath id="652a883d94"><path d="M 2.285156 2.601562 L 51.714844 2.601562 L 51.714844 48 L 2.285156 48 Z M 2.285156 2.601562 " clip-rule="nonzero"/></clipPath><clipPath id="861e67ce9c"><rect x="0" width="54" y="0" height="50"/></clipPath><mask id="b84a6283ca"><g filter="url(#0975b41a31)"><rect x="-26.175" width="314.1" fill="#000000" y="-21.149999" height="253.799993" fill-opacity="0.8"/></g></mask><clipPath id="e5aace00fb"><path d="M 1.519531 0.976562 L 61.746094 0.976562 L 61.746094 48.21875 L 1.519531 48.21875 Z M 1.519531 0.976562 " clip-rule="nonzero"/></clipPath><clipPath id="4ed3959504"><path d="M 36.113281 27.890625 C 40.007812 27.890625 41.742188 31.136719 44.339844 33.738281 C 45.640625 35.035156 48.019531 35.035156 49.320312 33.738281 L 55.597656 27.457031 C 56.898438 26.15625 56.898438 23.777344 55.597656 22.476562 L 49.320312 16.199219 C 46.9375 13.816406 44.125 12.300781 46.070312 10.785156 C 46.9375 10.136719 47.589844 9.699219 49.101562 9.699219 C 51.484375 9.699219 52.351562 11.648438 54.082031 13.164062 C 54.949219 14.03125 56.246094 14.03125 57.117188 13.164062 L 61.011719 9.269531 C 61.878906 8.402344 61.878906 7.101562 61.011719 6.238281 L 57.117188 2.339844 C 56.246094 1.472656 54.949219 1.472656 54.082031 2.339844 C 52.566406 3.855469 51.269531 6.019531 49.101562 6.019531 C 46.9375 6.019531 45.640625 3.855469 44.125 2.339844 C 43.257812 1.472656 41.957031 1.472656 41.089844 2.339844 L 37.191406 6.238281 C 36.328125 7.101562 36.328125 8.402344 37.191406 9.269531 C 40.441406 12.515625 45.855469 14.464844 43.257812 17.496094 C 41.308594 19.878906 39.140625 22.476562 36.113281 22.476562 C 32.429688 22.476562 30.265625 18.796875 27.664062 16.199219 C 26.367188 14.898438 23.984375 14.898438 22.6875 16.199219 L 16.40625 22.476562 C 15.109375 23.777344 15.109375 26.15625 16.40625 27.457031 L 22.6875 33.738281 C 23.984375 35.035156 26.367188 35.035156 27.664062 33.738281 C 30.480469 30.921875 31.996094 27.890625 36.113281 27.890625 Z M 29.613281 3.421875 L 41.742188 15.546875 C 40.226562 17.496094 38.0625 19.878906 36.113281 19.878906 C 33.511719 19.878906 30.914062 15.980469 29.183594 14.25 C 27.015625 12.085938 23.335938 12.085938 20.953125 14.25 L 14.675781 20.527344 C 12.507812 22.691406 12.507812 26.375 14.675781 28.753906 L 20.953125 35.035156 C 23.121094 37.203125 26.800781 37.203125 29.183594 35.035156 C 31.128906 33.085938 33.078125 29.839844 36.113281 29.839844 C 38.492188 29.839844 40.226562 32.003906 41.742188 33.953125 L 29.613281 46.078125 C 27.015625 48.679688 22.902344 48.679688 20.304688 46.078125 L 3.632812 29.40625 C 1.03125 26.804688 1.03125 22.691406 3.632812 20.097656 L 20.304688 3.421875 C 22.902344 0.824219 27.015625 0.824219 29.613281 3.421875 Z M 51.703125 -9.351562 L 54.082031 -6.96875 C 54.734375 -6.320312 55.816406 -6.320312 56.464844 -6.96875 L 58.847656 -9.351562 C 59.496094 -10.003906 59.496094 -11.085938 58.847656 -11.734375 L 56.464844 -14.117188 C 55.816406 -14.765625 54.734375 -14.765625 54.082031 -14.117188 L 51.703125 -11.734375 C 51.050781 -11.085938 51.050781 -10.003906 51.703125 -9.351562 Z M 51.703125 -9.351562 " clip-rule="evenodd"/></clipPath><clipPath id="c26a154f2f"><rect x="0" width="63" y="0" height="49"/></clipPath></defs><g clip-path="url(#d93a440cd8)"><path fill="#abb2bf" d="M 8.851562 46.914062 C 8.851562 47.066406 8.824219 47.210938 8.765625 47.351562 C 8.707031 47.492188 8.625 47.613281 8.519531 47.722656 C 8.410156 47.828125 8.289062 47.910156 8.148438 47.96875 C 8.007812 48.027344 7.863281 48.054688 7.710938 48.054688 C 7.5625 48.054688 7.414062 48.027344 7.277344 47.96875 C 7.136719 47.910156 7.011719 47.828125 6.90625 47.722656 C 6.796875 47.613281 6.714844 47.492188 6.65625 47.351562 C 6.601562 47.210938 6.570312 47.066406 6.570312 46.914062 C 6.570312 46.761719 6.601562 46.617188 6.65625 46.476562 C 6.714844 46.335938 6.796875 46.214844 6.90625 46.105469 C 7.011719 46 7.136719 45.917969 7.277344 45.859375 C 7.414062 45.800781 7.5625 45.773438 7.710938 45.773438 C 7.863281 45.773438 8.007812 45.800781 8.148438 45.859375 C 8.289062 45.917969 8.410156 46 8.519531 46.105469 C 8.625 46.214844 8.707031 46.335938 8.765625 46.476562 C 8.824219 46.617188 8.851562 46.761719 8.851562 46.914062 Z M 8.851562 46.914062 " fill-opacity="1" fill-rule="nonzero"/></g><g clip-path="url(#d5a0e9896a)"><path fill="#abb2bf" d="M 20.265625 46.914062 C 20.265625 47.066406 20.238281 47.210938 20.179688 47.351562 C 20.121094 47.492188 20.039062 47.613281 19.929688 47.722656 C 19.824219 47.828125 19.703125 47.910156 19.5625 47.96875 C 19.421875 48.027344 19.277344 48.054688 19.125 48.054688 C 18.972656 48.054688 18.828125 48.027344 18.6875 47.96875 C 18.546875 47.910156 18.425781 47.828125 18.316406 47.722656 C 18.210938 47.613281 18.128906 47.492188 18.070312 47.351562 C 18.011719 47.210938 17.984375 47.066406 17.984375 46.914062 C 17.984375 46.761719 18.011719 46.617188 18.070312 46.476562 C 18.128906 46.335938 18.210938 46.214844 18.316406 46.105469 C 18.425781 46 18.546875 45.917969 18.6875 45.859375 C 18.828125 45.800781 18.972656 45.773438 19.125 45.773438 C 19.277344 45.773438 19.421875 45.800781 19.5625 45.859375 C 19.703125 45.917969 19.824219 46 19.929688 46.105469 C 20.039062 46.214844 20.121094 46.335938 20.179688 46.476562 C 20.238281 46.617188 20.265625 46.761719 20.265625 46.914062 Z M 20.265625 46.914062 " fill-opacity="1" fill-rule="nonzero"/></g><g clip-path="url(#68af444a58)"><path fill="#abb2bf" d="M 31.679688 46.914062 C 31.679688 47.066406 31.648438 47.210938 31.589844 47.351562 C 31.535156 47.492188 31.449219 47.613281 31.34375 47.722656 C 31.238281 47.828125 31.113281 47.910156 30.972656 47.96875 C 30.835938 48.027344 30.6875 48.054688 30.539062 48.054688 C 30.386719 48.054688 30.238281 48.027344 30.101562 47.96875 C 29.960938 47.910156 29.835938 47.828125 29.730469 47.722656 C 29.625 47.613281 29.539062 47.492188 29.484375 47.351562 C 29.425781 47.210938 29.394531 47.066406 29.394531 46.914062 C 29.394531 46.761719 29.425781 46.617188 29.484375 46.476562 C 29.539062 46.335938 29.625 46.214844 29.730469 46.105469 C 29.835938 46 29.960938 45.917969 30.101562 45.859375 C 30.238281 45.800781 30.386719 45.773438 30.539062 45.773438 C 30.6875 45.773438 30.835938 45.800781 30.972656 45.859375 C 31.113281 45.917969 31.238281 46 31.34375 46.105469 C 31.449219 46.214844 31.535156 46.335938 31.589844 46.476562 C 31.648438 46.617188 31.679688 46.761719 31.679688 46.914062 Z M 31.679688 46.914062 " fill-opacity="1" fill-rule="nonzero"/></g><g clip-path="url(#9c2657c75c)"><path fill="#abb2bf" d="M 43.089844 46.914062 C 43.089844 47.066406 43.0625 47.210938 43.003906 47.351562 C 42.945312 47.492188 42.863281 47.613281 42.757812 47.722656 C 42.648438 47.828125 42.527344 47.910156 42.386719 47.96875 C 42.246094 48.027344 42.101562 48.054688 41.949219 48.054688 C 41.796875 48.054688 41.652344 48.027344 41.511719 47.96875 C 41.375 47.910156 41.25 47.828125 41.144531 47.722656 C 41.035156 47.613281 40.953125 47.492188 40.894531 47.351562 C 40.835938 47.210938 40.808594 47.066406 40.808594 46.914062 C 40.808594 46.761719 40.835938 46.617188 40.894531 46.476562 C 40.953125 46.335938 41.035156 46.214844 41.144531 46.105469 C 41.25 46 41.375 45.917969 41.511719 45.859375 C 41.652344 45.800781 41.796875 45.773438 41.949219 45.773438 C 42.101562 45.773438 42.246094 45.800781 42.386719 45.859375 C 42.527344 45.917969 42.648438 46 42.757812 46.105469 C 42.863281 46.214844 42.945312 46.335938 43.003906 46.476562 C 43.0625 46.617188 43.089844 46.761719 43.089844 46.914062 Z M 43.089844 46.914062 " fill-opacity="1" fill-rule="nonzero"/></g><g clip-path="url(#ba19765f27)"><path fill="#abb2bf" d="M 54.503906 46.914062 C 54.503906 47.066406 54.472656 47.210938 54.417969 47.351562 C 54.359375 47.492188 54.277344 47.613281 54.167969 47.722656 C 54.0625 47.828125 53.9375 47.910156 53.800781 47.96875 C 53.660156 48.027344 53.511719 48.054688 53.363281 48.054688 C 53.210938 48.054688 53.066406 48.027344 52.925781 47.96875 C 52.785156 47.910156 52.664062 47.828125 52.554688 47.722656 C 52.449219 47.613281 52.367188 47.492188 52.308594 47.351562 C 52.25 47.210938 52.222656 47.066406 52.222656 46.914062 C 52.222656 46.761719 52.25 46.617188 52.308594 46.476562 C 52.367188 46.335938 52.449219 46.214844 52.554688 46.105469 C 52.664062 46 52.785156 45.917969 52.925781 45.859375 C 53.066406 45.800781 53.210938 45.773438 53.363281 45.773438 C 53.511719 45.773438 53.660156 45.800781 53.800781 45.859375 C 53.9375 45.917969 54.0625 46 54.167969 46.105469 C 54.277344 46.214844 54.359375 46.335938 54.417969 46.476562 C 54.472656 46.617188 54.503906 46.761719 54.503906 46.914062 Z M 54.503906 46.914062 " fill-opacity="1" fill-rule="nonzero"/></g><g clip-path="url(#6d9445a80f)"><path fill="#abb2bf" d="M 8.851562 58.328125 C 8.851562 58.476562 8.824219 58.625 8.765625 58.761719 C 8.707031 58.902344 8.625 59.027344 8.519531 59.132812 C 8.410156 59.242188 8.289062 59.324219 8.148438 59.378906 C 8.007812 59.4375 7.863281 59.46875 7.710938 59.46875 C 7.5625 59.46875 7.414062 59.4375 7.277344 59.378906 C 7.136719 59.324219 7.011719 59.242188 6.90625 59.132812 C 6.796875 59.027344 6.714844 58.902344 6.65625 58.761719 C 6.601562 58.625 6.570312 58.476562 6.570312 58.328125 C 6.570312 58.175781 6.601562 58.03125 6.65625 57.890625 C 6.714844 57.75 6.796875 57.625 6.90625 57.519531 C 7.011719 57.414062 7.136719 57.328125 7.277344 57.273438 C 7.414062 57.214844 7.5625 57.183594 7.710938 57.183594 C 7.863281 57.183594 8.007812 57.214844 8.148438 57.273438 C 8.289062 57.328125 8.410156 57.414062 8.519531 57.519531 C 8.625 57.625 8.707031 57.75 8.765625 57.890625 C 8.824219 58.03125 8.851562 58.175781 8.851562 58.328125 Z M 8.851562 58.328125 " fill-opacity="1" fill-rule="nonzero"/></g><path fill="#abb2bf" d="M 20.265625 58.328125 C 20.265625 58.476562 20.238281 58.625 20.179688 58.761719 C 20.121094 58.902344 20.039062 59.027344 19.929688 59.132812 C 19.824219 59.242188 19.703125 59.324219 19.5625 59.378906 C 19.421875 59.4375 19.277344 59.46875 19.125 59.46875 C 18.972656 59.46875 18.828125 59.4375 18.6875 59.378906 C 18.546875 59.324219 18.425781 59.242188 18.316406 59.132812 C 18.210938 59.027344 18.128906 58.902344 18.070312 58.761719 C 18.011719 58.625 17.984375 58.476562 17.984375 58.328125 C 17.984375 58.175781 18.011719 58.03125 18.070312 57.890625 C 18.128906 57.75 18.210938 57.625 18.316406 57.519531 C 18.425781 57.414062 18.546875 57.328125 18.6875 57.273438 C 18.828125 57.214844 18.972656 57.183594 19.125 57.183594 C 19.277344 57.183594 19.421875 57.214844 19.5625 57.273438 C 19.703125 57.328125 19.824219 57.414062 19.929688 57.519531 C 20.039062 57.625 20.121094 57.75 20.179688 57.890625 C 20.238281 58.03125 20.265625 58.175781 20.265625 58.328125 Z M 20.265625 58.328125 " fill-opacity="1" fill-rule="nonzero"/><path fill="#abb2bf" d="M 31.679688 58.328125 C 31.679688 58.476562 31.648438 58.625 31.589844 58.761719 C 31.535156 58.902344 31.449219 59.027344 31.34375 59.132812 C 31.238281 59.242188 31.113281 59.324219 30.972656 59.378906 C 30.835938 59.4375 30.6875 59.46875 30.539062 59.46875 C 30.386719 59.46875 30.238281 59.4375 30.101562 59.378906 C 29.960938 59.324219 29.835938 59.242188 29.730469 59.132812 C 29.625 59.027344 29.539062 58.902344 29.484375 58.761719 C 29.425781 58.625 29.394531 58.476562 29.394531 58.328125 C 29.394531 58.175781 29.425781 58.03125 29.484375 57.890625 C 29.539062 57.75 29.625 57.625 29.730469 57.519531 C 29.835938 57.414062 29.960938 57.328125 30.101562 57.273438 C 30.238281 57.214844 30.386719 57.183594 30.539062 57.183594 C 30.6875 57.183594 30.835938 57.214844 30.972656 57.273438 C 31.113281 57.328125 31.238281 57.414062 31.34375 57.519531 C 31.449219 57.625 31.535156 57.75 31.589844 57.890625 C 31.648438 58.03125 31.679688 58.175781 31.679688 58.328125 Z M 31.679688 58.328125 " fill-opacity="1" fill-rule="nonzero"/><path fill="#abb2bf" d="M 43.089844 58.328125 C 43.089844 58.476562 43.0625 58.625 43.003906 58.761719 C 42.945312 58.902344 42.863281 59.027344 42.757812 59.132812 C 42.648438 59.242188 42.527344 59.324219 42.386719 59.378906 C 42.246094 59.4375 42.101562 59.46875 41.949219 59.46875 C 41.796875 59.46875 41.652344 59.4375 41.511719 59.378906 C 41.375 59.324219 41.25 59.242188 41.144531 59.132812 C 41.035156 59.027344 40.953125 58.902344 40.894531 58.761719 C 40.835938 58.625 40.808594 58.476562 40.808594 58.328125 C 40.808594 58.175781 40.835938 58.03125 40.894531 57.890625 C 40.953125 57.75 41.035156 57.625 41.144531 57.519531 C 41.25 57.414062 41.375 57.328125 41.511719 57.273438 C 41.652344 57.214844 41.796875 57.183594 41.949219 57.183594 C 42.101562 57.183594 42.246094 57.214844 42.386719 57.273438 C 42.527344 57.328125 42.648438 57.414062 42.757812 57.519531 C 42.863281 57.625 42.945312 57.75 43.003906 57.890625 C 43.0625 58.03125 43.089844 58.175781 43.089844 58.328125 Z M 43.089844 58.328125 " fill-opacity="1" fill-rule="nonzero"/><g clip-path="url(#763c3e30a9)"><path fill="#abb2bf" d="M 54.503906 58.328125 C 54.503906 58.476562 54.472656 58.625 54.417969 58.761719 C 54.359375 58.902344 54.277344 59.027344 54.167969 59.132812 C 54.0625 59.242188 53.9375 59.324219 53.800781 59.378906 C 53.660156 59.4375 53.511719 59.46875 53.363281 59.46875 C 53.210938 59.46875 53.066406 59.4375 52.925781 59.378906 C 52.785156 59.324219 52.664062 59.242188 52.554688 59.132812 C 52.449219 59.027344 52.367188 58.902344 52.308594 58.761719 C 52.25 58.625 52.222656 58.476562 52.222656 58.328125 C 52.222656 58.175781 52.25 58.03125 52.308594 57.890625 C 52.367188 57.75 52.449219 57.625 52.554688 57.519531 C 52.664062 57.414062 52.785156 57.328125 52.925781 57.273438 C 53.066406 57.214844 53.210938 57.183594 53.363281 57.183594 C 53.511719 57.183594 53.660156 57.214844 53.800781 57.273438 C 53.9375 57.328125 54.0625 57.414062 54.167969 57.519531 C 54.277344 57.625 54.359375 57.75 54.417969 57.890625 C 54.472656 58.03125 54.503906 58.175781 54.503906 58.328125 Z M 54.503906 58.328125 " fill-opacity="1" fill-rule="nonzero"/></g><g clip-path="url(#10f8a1bc83)"><path fill="#abb2bf" d="M 8.851562 69.738281 C 8.851562 69.890625 8.824219 70.035156 8.765625 70.175781 C 8.707031 70.316406 8.625 70.4375 8.519531 70.546875 C 8.410156 70.652344 8.289062 70.734375 8.148438 70.792969 C 8.007812 70.851562 7.863281 70.878906 7.710938 70.878906 C 7.5625 70.878906 7.414062 70.851562 7.277344 70.792969 C 7.136719 70.734375 7.011719 70.652344 6.90625 70.546875 C 6.796875 70.4375 6.714844 70.316406 6.65625 70.175781 C 6.601562 70.035156 6.570312 69.890625 6.570312 69.738281 C 6.570312 69.585938 6.601562 69.441406 6.65625 69.300781 C 6.714844 69.164062 6.796875 69.039062 6.90625 68.933594 C 7.011719 68.824219 7.136719 68.742188 7.277344 68.683594 C 7.414062 68.625 7.5625 68.597656 7.710938 68.597656 C 7.863281 68.597656 8.007812 68.625 8.148438 68.683594 C 8.289062 68.742188 8.410156 68.824219 8.519531 68.933594 C 8.625 69.039062 8.707031 69.164062 8.765625 69.300781 C 8.824219 69.441406 8.851562 69.585938 8.851562 69.738281 Z M 8.851562 69.738281 " fill-opacity="1" fill-rule="nonzero"/></g><path fill="#abb2bf" d="M 20.265625 69.738281 C 20.265625 69.890625 20.238281 70.035156 20.179688 70.175781 C 20.121094 70.316406 20.039062 70.4375 19.929688 70.546875 C 19.824219 70.652344 19.703125 70.734375 19.5625 70.792969 C 19.421875 70.851562 19.277344 70.878906 19.125 70.878906 C 18.972656 70.878906 18.828125 70.851562 18.6875 70.792969 C 18.546875 70.734375 18.425781 70.652344 18.316406 70.546875 C 18.210938 70.4375 18.128906 70.316406 18.070312 70.175781 C 18.011719 70.035156 17.984375 69.890625 17.984375 69.738281 C 17.984375 69.585938 18.011719 69.441406 18.070312 69.300781 C 18.128906 69.164062 18.210938 69.039062 18.316406 68.933594 C 18.425781 68.824219 18.546875 68.742188 18.6875 68.683594 C 18.828125 68.625 18.972656 68.597656 19.125 68.597656 C 19.277344 68.597656 19.421875 68.625 19.5625 68.683594 C 19.703125 68.742188 19.824219 68.824219 19.929688 68.933594 C 20.039062 69.039062 20.121094 69.164062 20.179688 69.300781 C 20.238281 69.441406 20.265625 69.585938 20.265625 69.738281 Z M 20.265625 69.738281 " fill-opacity="1" fill-rule="nonzero"/><path fill="#abb2bf" d="M 31.679688 69.738281 C 31.679688 69.890625 31.648438 70.035156 31.589844 70.175781 C 31.535156 70.316406 31.449219 70.4375 31.34375 70.546875 C 31.238281 70.652344 31.113281 70.734375 30.972656 70.792969 C 30.835938 70.851562 30.6875 70.878906 30.539062 70.878906 C 30.386719 70.878906 30.238281 70.851562 30.101562 70.792969 C 29.960938 70.734375 29.835938 70.652344 29.730469 70.546875 C 29.625 70.4375 29.539062 70.316406 29.484375 70.175781 C 29.425781 70.035156 29.394531 69.890625 29.394531 69.738281 C 29.394531 69.585938 29.425781 69.441406 29.484375 69.300781 C 29.539062 69.164062 29.625 69.039062 29.730469 68.933594 C 29.835938 68.824219 29.960938 68.742188 30.101562 68.683594 C 30.238281 68.625 30.386719 68.597656 30.539062 68.597656 C 30.6875 68.597656 30.835938 68.625 30.972656 68.683594 C 31.113281 68.742188 31.238281 68.824219 31.34375 68.933594 C 31.449219 69.039062 31.535156 69.164062 31.589844 69.300781 C 31.648438 69.441406 31.679688 69.585938 31.679688 69.738281 Z M 31.679688 69.738281 " fill-opacity="1" fill-rule="nonzero"/><path fill="#abb2bf" d="M 43.089844 69.738281 C 43.089844 69.890625 43.0625 70.035156 43.003906 70.175781 C 42.945312 70.316406 42.863281 70.4375 42.757812 70.546875 C 42.648438 70.652344 42.527344 70.734375 42.386719 70.792969 C 42.246094 70.851562 42.101562 70.878906 41.949219 70.878906 C 41.796875 70.878906 41.652344 70.851562 41.511719 70.792969 C 41.375 70.734375 41.25 70.652344 41.144531 70.546875 C 41.035156 70.4375 40.953125 70.316406 40.894531 70.175781 C 40.835938 70.035156 40.808594 69.890625 40.808594 69.738281 C 40.808594 69.585938 40.835938 69.441406 40.894531 69.300781 C 40.953125 69.164062 41.035156 69.039062 41.144531 68.933594 C 41.25 68.824219 41.375 68.742188 41.511719 68.683594 C 41.652344 68.625 41.796875 68.597656 41.949219 68.597656 C 42.101562 68.597656 42.246094 68.625 42.386719 68.683594 C 42.527344 68.742188 42.648438 68.824219 42.757812 68.933594 C 42.863281 69.039062 42.945312 69.164062 43.003906 69.300781 C 43.0625 69.441406 43.089844 69.585938 43.089844 69.738281 Z M 43.089844 69.738281 " fill-opacity="1" fill-rule="nonzero"/><g clip-path="url(#b6218d3112)"><path fill="#abb2bf" d="M 54.503906 69.738281 C 54.503906 69.890625 54.472656 70.035156 54.417969 70.175781 C 54.359375 70.316406 54.277344 70.4375 54.167969 70.546875 C 54.0625 70.652344 53.9375 70.734375 53.800781 70.792969 C 53.660156 70.851562 53.511719 70.878906 53.363281 70.878906 C 53.210938 70.878906 53.066406 70.851562 52.925781 70.792969 C 52.785156 70.734375 52.664062 70.652344 52.554688 70.546875 C 52.449219 70.4375 52.367188 70.316406 52.308594 70.175781 C 52.25 70.035156 52.222656 69.890625 52.222656 69.738281 C 52.222656 69.585938 52.25 69.441406 52.308594 69.300781 C 52.367188 69.164062 52.449219 69.039062 52.554688 68.933594 C 52.664062 68.824219 52.785156 68.742188 52.925781 68.683594 C 53.066406 68.625 53.210938 68.597656 53.363281 68.597656 C 53.511719 68.597656 53.660156 68.625 53.800781 68.683594 C 53.9375 68.742188 54.0625 68.824219 54.167969 68.933594 C 54.277344 69.039062 54.359375 69.164062 54.417969 69.300781 C 54.472656 69.441406 54.503906 69.585938 54.503906 69.738281 Z M 54.503906 69.738281 " fill-opacity="1" fill-rule="nonzero"/></g><g clip-path="url(#6571e945b9)"><path fill="#abb2bf" d="M 8.851562 81.152344 C 8.851562 81.300781 8.824219 81.449219 8.765625 81.589844 C 8.707031 81.726562 8.625 81.851562 8.519531 81.957031 C 8.410156 82.066406 8.289062 82.148438 8.148438 82.207031 C 8.007812 82.261719 7.863281 82.292969 7.710938 82.292969 C 7.5625 82.292969 7.414062 82.261719 7.277344 82.207031 C 7.136719 82.148438 7.011719 82.066406 6.90625 81.957031 C 6.796875 81.851562 6.714844 81.726562 6.65625 81.589844 C 6.601562 81.449219 6.570312 81.300781 6.570312 81.152344 C 6.570312 81 6.601562 80.855469 6.65625 80.714844 C 6.714844 80.574219 6.796875 80.453125 6.90625 80.34375 C 7.011719 80.238281 7.136719 80.15625 7.277344 80.097656 C 7.414062 80.039062 7.5625 80.011719 7.710938 80.011719 C 7.863281 80.011719 8.007812 80.039062 8.148438 80.097656 C 8.289062 80.15625 8.410156 80.238281 8.519531 80.34375 C 8.625 80.453125 8.707031 80.574219 8.765625 80.714844 C 8.824219 80.855469 8.851562 81 8.851562 81.152344 Z M 8.851562 81.152344 " fill-opacity="1" fill-rule="nonzero"/></g><path fill="#abb2bf" d="M 20.265625 81.152344 C 20.265625 81.300781 20.238281 81.449219 20.179688 81.589844 C 20.121094 81.726562 20.039062 81.851562 19.929688 81.957031 C 19.824219 82.066406 19.703125 82.148438 19.5625 82.207031 C 19.421875 82.261719 19.277344 82.292969 19.125 82.292969 C 18.972656 82.292969 18.828125 82.261719 18.6875 82.207031 C 18.546875 82.148438 18.425781 82.066406 18.316406 81.957031 C 18.210938 81.851562 18.128906 81.726562 18.070312 81.589844 C 18.011719 81.449219 17.984375 81.300781 17.984375 81.152344 C 17.984375 81 18.011719 80.855469 18.070312 80.714844 C 18.128906 80.574219 18.210938 80.453125 18.316406 80.34375 C 18.425781 80.238281 18.546875 80.15625 18.6875 80.097656 C 18.828125 80.039062 18.972656 80.011719 19.125 80.011719 C 19.277344 80.011719 19.421875 80.039062 19.5625 80.097656 C 19.703125 80.15625 19.824219 80.238281 19.929688 80.34375 C 20.039062 80.453125 20.121094 80.574219 20.179688 80.714844 C 20.238281 80.855469 20.265625 81 20.265625 81.152344 Z M 20.265625 81.152344 " fill-opacity="1" fill-rule="nonzero"/><path fill="#abb2bf" d="M 31.679688 81.152344 C 31.679688 81.300781 31.648438 81.449219 31.589844 81.589844 C 31.535156 81.726562 31.449219 81.851562 31.34375 81.957031 C 31.238281 82.066406 31.113281 82.148438 30.972656 82.207031 C 30.835938 82.261719 30.6875 82.292969 30.539062 82.292969 C 30.386719 82.292969 30.238281 82.261719 30.101562 82.207031 C 29.960938 82.148438 29.835938 82.066406 29.730469 81.957031 C 29.625 81.851562 29.539062 81.726562 29.484375 81.589844 C 29.425781 81.449219 29.394531 81.300781 29.394531 81.152344 C 29.394531 81 29.425781 80.855469 29.484375 80.714844 C 29.539062 80.574219 29.625 80.453125 29.730469 80.34375 C 29.835938 80.238281 29.960938 80.15625 30.101562 80.097656 C 30.238281 80.039062 30.386719 80.011719 30.539062 80.011719 C 30.6875 80.011719 30.835938 80.039062 30.972656 80.097656 C 31.113281 80.15625 31.238281 80.238281 31.34375 80.34375 C 31.449219 80.453125 31.535156 80.574219 31.589844 80.714844 C 31.648438 80.855469 31.679688 81 31.679688 81.152344 Z M 31.679688 81.152344 " fill-opacity="1" fill-rule="nonzero"/><path fill="#abb2bf" d="M 43.089844 81.152344 C 43.089844 81.300781 43.0625 81.449219 43.003906 81.589844 C 42.945312 81.726562 42.863281 81.851562 42.757812 81.957031 C 42.648438 82.066406 42.527344 82.148438 42.386719 82.207031 C 42.246094 82.261719 42.101562 82.292969 41.949219 82.292969 C 41.796875 82.292969 41.652344 82.261719 41.511719 82.207031 C 41.375 82.148438 41.25 82.066406 41.144531 81.957031 C 41.035156 81.851562 40.953125 81.726562 40.894531 81.589844 C 40.835938 81.449219 40.808594 81.300781 40.808594 81.152344 C 40.808594 81 40.835938 80.855469 40.894531 80.714844 C 40.953125 80.574219 41.035156 80.453125 41.144531 80.34375 C 41.25 80.238281 41.375 80.15625 41.511719 80.097656 C 41.652344 80.039062 41.796875 80.011719 41.949219 80.011719 C 42.101562 80.011719 42.246094 80.039062 42.386719 80.097656 C 42.527344 80.15625 42.648438 80.238281 42.757812 80.34375 C 42.863281 80.453125 42.945312 80.574219 43.003906 80.714844 C 43.0625 80.855469 43.089844 81 43.089844 81.152344 Z M 43.089844 81.152344 " fill-opacity="1" fill-rule="nonzero"/><g clip-path="url(#3361eca963)"><path fill="#abb2bf" d="M 54.503906 81.152344 C 54.503906 81.300781 54.472656 81.449219 54.417969 81.589844 C 54.359375 81.726562 54.277344 81.851562 54.167969 81.957031 C 54.0625 82.066406 53.9375 82.148438 53.800781 82.207031 C 53.660156 82.261719 53.511719 82.292969 53.363281 82.292969 C 53.210938 82.292969 53.066406 82.261719 52.925781 82.207031 C 52.785156 82.148438 52.664062 82.066406 52.554688 81.957031 C 52.449219 81.851562 52.367188 81.726562 52.308594 81.589844 C 52.25 81.449219 52.222656 81.300781 52.222656 81.152344 C 52.222656 81 52.25 80.855469 52.308594 80.714844 C 52.367188 80.574219 52.449219 80.453125 52.554688 80.34375 C 52.664062 80.238281 52.785156 80.15625 52.925781 80.097656 C 53.066406 80.039062 53.210938 80.011719 53.363281 80.011719 C 53.511719 80.011719 53.660156 80.039062 53.800781 80.097656 C 53.9375 80.15625 54.0625 80.238281 54.167969 80.34375 C 54.277344 80.453125 54.359375 80.574219 54.417969 80.714844 C 54.472656 80.855469 54.503906 81 54.503906 81.152344 Z M 54.503906 81.152344 " fill-opacity="1" fill-rule="nonzero"/></g><g clip-path="url(#61f98f1922)"><path fill="#abb2bf" d="M 8.851562 92.5625 C 8.851562 92.714844 8.824219 92.859375 8.765625 93 C 8.707031 93.140625 8.625 93.265625 8.519531 93.371094 C 8.410156 93.476562 8.289062 93.558594 8.148438 93.617188 C 8.007812 93.675781 7.863281 93.703125 7.710938 93.703125 C 7.5625 93.703125 7.414062 93.675781 7.277344 93.617188 C 7.136719 93.558594 7.011719 93.476562 6.90625 93.371094 C 6.796875 93.265625 6.714844 93.140625 6.65625 93 C 6.601562 92.859375 6.570312 92.714844 6.570312 92.5625 C 6.570312 92.414062 6.601562 92.265625 6.65625 92.128906 C 6.714844 91.988281 6.796875 91.863281 6.90625 91.757812 C 7.011719 91.648438 7.136719 91.566406 7.277344 91.507812 C 7.414062 91.453125 7.5625 91.421875 7.710938 91.421875 C 7.863281 91.421875 8.007812 91.453125 8.148438 91.507812 C 8.289062 91.566406 8.410156 91.648438 8.519531 91.757812 C 8.625 91.863281 8.707031 91.988281 8.765625 92.128906 C 8.824219 92.265625 8.851562 92.414062 8.851562 92.5625 Z M 8.851562 92.5625 " fill-opacity="1" fill-rule="nonzero"/></g><g clip-path="url(#322369f45e)"><path fill="#abb2bf" d="M 20.265625 92.5625 C 20.265625 92.714844 20.238281 92.859375 20.179688 93 C 20.121094 93.140625 20.039062 93.265625 19.929688 93.371094 C 19.824219 93.476562 19.703125 93.558594 19.5625 93.617188 C 19.421875 93.675781 19.277344 93.703125 19.125 93.703125 C 18.972656 93.703125 18.828125 93.675781 18.6875 93.617188 C 18.546875 93.558594 18.425781 93.476562 18.316406 93.371094 C 18.210938 93.265625 18.128906 93.140625 18.070312 93 C 18.011719 92.859375 17.984375 92.714844 17.984375 92.5625 C 17.984375 92.414062 18.011719 92.265625 18.070312 92.128906 C 18.128906 91.988281 18.210938 91.863281 18.316406 91.757812 C 18.425781 91.648438 18.546875 91.566406 18.6875 91.507812 C 18.828125 91.453125 18.972656 91.421875 19.125 91.421875 C 19.277344 91.421875 19.421875 91.453125 19.5625 91.507812 C 19.703125 91.566406 19.824219 91.648438 19.929688 91.757812 C 20.039062 91.863281 20.121094 91.988281 20.179688 92.128906 C 20.238281 92.265625 20.265625 92.414062 20.265625 92.5625 Z M 20.265625 92.5625 " fill-opacity="1" fill-rule="nonzero"/></g><g clip-path="url(#0571d00ed8)"><path fill="#abb2bf" d="M 31.679688 92.5625 C 31.679688 92.714844 31.648438 92.859375 31.589844 93 C 31.535156 93.140625 31.449219 93.265625 31.34375 93.371094 C 31.238281 93.476562 31.113281 93.558594 30.972656 93.617188 C 30.835938 93.675781 30.6875 93.703125 30.539062 93.703125 C 30.386719 93.703125 30.238281 93.675781 30.101562 93.617188 C 29.960938 93.558594 29.835938 93.476562 29.730469 93.371094 C 29.625 93.265625 29.539062 93.140625 29.484375 93 C 29.425781 92.859375 29.394531 92.714844 29.394531 92.5625 C 29.394531 92.414062 29.425781 92.265625 29.484375 92.128906 C 29.539062 91.988281 29.625 91.863281 29.730469 91.757812 C 29.835938 91.648438 29.960938 91.566406 30.101562 91.507812 C 30.238281 91.453125 30.386719 91.421875 30.539062 91.421875 C 30.6875 91.421875 30.835938 91.453125 30.972656 91.507812 C 31.113281 91.566406 31.238281 91.648438 31.34375 91.757812 C 31.449219 91.863281 31.535156 91.988281 31.589844 92.128906 C 31.648438 92.265625 31.679688 92.414062 31.679688 92.5625 Z M 31.679688 92.5625 " fill-opacity="1" fill-rule="nonzero"/></g><g clip-path="url(#9f9f2faabc)"><path fill="#abb2bf" d="M 43.089844 92.5625 C 43.089844 92.714844 43.0625 92.859375 43.003906 93 C 42.945312 93.140625 42.863281 93.265625 42.757812 93.371094 C 42.648438 93.476562 42.527344 93.558594 42.386719 93.617188 C 42.246094 93.675781 42.101562 93.703125 41.949219 93.703125 C 41.796875 93.703125 41.652344 93.675781 41.511719 93.617188 C 41.375 93.558594 41.25 93.476562 41.144531 93.371094 C 41.035156 93.265625 40.953125 93.140625 40.894531 93 C 40.835938 92.859375 40.808594 92.714844 40.808594 92.5625 C 40.808594 92.414062 40.835938 92.265625 40.894531 92.128906 C 40.953125 91.988281 41.035156 91.863281 41.144531 91.757812 C 41.25 91.648438 41.375 91.566406 41.511719 91.507812 C 41.652344 91.453125 41.796875 91.421875 41.949219 91.421875 C 42.101562 91.421875 42.246094 91.453125 42.386719 91.507812 C 42.527344 91.566406 42.648438 91.648438 42.757812 91.757812 C 42.863281 91.863281 42.945312 91.988281 43.003906 92.128906 C 43.0625 92.265625 43.089844 92.414062 43.089844 92.5625 Z M 43.089844 92.5625 " fill-opacity="1" fill-rule="nonzero"/></g><g clip-path="url(#e804bed32a)"><path fill="#abb2bf" d="M 54.503906 92.5625 C 54.503906 92.714844 54.472656 92.859375 54.417969 93 C 54.359375 93.140625 54.277344 93.265625 54.167969 93.371094 C 54.0625 93.476562 53.9375 93.558594 53.800781 93.617188 C 53.660156 93.675781 53.511719 93.703125 53.363281 93.703125 C 53.210938 93.703125 53.066406 93.675781 52.925781 93.617188 C 52.785156 93.558594 52.664062 93.476562 52.554688 93.371094 C 52.449219 93.265625 52.367188 93.140625 52.308594 93 C 52.25 92.859375 52.222656 92.714844 52.222656 92.5625 C 52.222656 92.414062 52.25 92.265625 52.308594 92.128906 C 52.367188 91.988281 52.449219 91.863281 52.554688 91.757812 C 52.664062 91.648438 52.785156 91.566406 52.925781 91.507812 C 53.066406 91.453125 53.210938 91.421875 53.363281 91.421875 C 53.511719 91.421875 53.660156 91.453125 53.800781 91.507812 C 53.9375 91.566406 54.0625 91.648438 54.167969 91.757812 C 54.277344 91.863281 54.359375 91.988281 54.417969 92.128906 C 54.472656 92.265625 54.503906 92.414062 54.503906 92.5625 Z M 54.503906 92.5625 " fill-opacity="1" fill-rule="nonzero"/></g><g clip-path="url(#f56e839557)"><path fill="#abb2bf" d="M 203.074219 143.140625 C 203.074219 143.292969 203.046875 143.4375 202.988281 143.578125 C 202.929688 143.71875 202.847656 143.839844 202.742188 143.949219 C 202.632812 144.054688 202.511719 144.136719 202.371094 144.195312 C 202.230469 144.253906 202.085938 144.28125 201.933594 144.28125 C 201.785156 144.28125 201.636719 144.253906 201.496094 144.195312 C 201.359375 144.136719 201.234375 144.054688 201.128906 143.949219 C 201.019531 143.839844 200.9375 143.71875 200.878906 143.578125 C 200.824219 143.4375 200.792969 143.292969 200.792969 143.140625 C 200.792969 142.988281 200.824219 142.84375 200.878906 142.703125 C 200.9375 142.5625 201.019531 142.441406 201.128906 142.332031 C 201.234375 142.226562 201.359375 142.144531 201.496094 142.085938 C 201.636719 142.027344 201.785156 142 201.933594 142 C 202.085938 142 202.230469 142.027344 202.371094 142.085938 C 202.511719 142.144531 202.632812 142.226562 202.742188 142.332031 C 202.847656 142.441406 202.929688 142.5625 202.988281 142.703125 C 203.046875 142.84375 203.074219 142.988281 203.074219 143.140625 Z M 203.074219 143.140625 " fill-opacity="1" fill-rule="nonzero"/></g><path fill="#abb2bf" d="M 214.488281 143.140625 C 214.488281 143.292969 214.460938 143.4375 214.402344 143.578125 C 214.34375 143.71875 214.261719 143.839844 214.152344 143.949219 C 214.046875 144.054688 213.921875 144.136719 213.785156 144.195312 C 213.644531 144.253906 213.5 144.28125 213.347656 144.28125 C 213.195312 144.28125 213.050781 144.253906 212.910156 144.195312 C 212.769531 144.136719 212.648438 144.054688 212.539062 143.949219 C 212.433594 143.839844 212.351562 143.71875 212.292969 143.578125 C 212.234375 143.4375 212.207031 143.292969 212.207031 143.140625 C 212.207031 142.988281 212.234375 142.84375 212.292969 142.703125 C 212.351562 142.5625 212.433594 142.441406 212.539062 142.332031 C 212.648438 142.226562 212.769531 142.144531 212.910156 142.085938 C 213.050781 142.027344 213.195312 142 213.347656 142 C 213.5 142 213.644531 142.027344 213.785156 142.085938 C 213.921875 142.144531 214.046875 142.226562 214.152344 142.332031 C 214.261719 142.441406 214.34375 142.5625 214.402344 142.703125 C 214.460938 142.84375 214.488281 142.988281 214.488281 143.140625 Z M 214.488281 143.140625 " fill-opacity="1" fill-rule="nonzero"/><path fill="#abb2bf" d="M 225.902344 143.140625 C 225.902344 143.292969 225.871094 143.4375 225.8125 143.578125 C 225.757812 143.71875 225.671875 143.839844 225.566406 143.949219 C 225.460938 144.054688 225.335938 144.136719 225.195312 144.195312 C 225.054688 144.253906 224.910156 144.28125 224.757812 144.28125 C 224.609375 144.28125 224.460938 144.253906 224.324219 144.195312 C 224.183594 144.136719 224.058594 144.054688 223.953125 143.949219 C 223.84375 143.839844 223.761719 143.71875 223.707031 143.578125 C 223.648438 143.4375 223.617188 143.292969 223.617188 143.140625 C 223.617188 142.988281 223.648438 142.84375 223.707031 142.703125 C 223.761719 142.5625 223.84375 142.441406 223.953125 142.332031 C 224.058594 142.226562 224.183594 142.144531 224.324219 142.085938 C 224.460938 142.027344 224.609375 142 224.757812 142 C 224.910156 142 225.054688 142.027344 225.195312 142.085938 C 225.335938 142.144531 225.460938 142.226562 225.566406 142.332031 C 225.671875 142.441406 225.757812 142.5625 225.8125 142.703125 C 225.871094 142.84375 225.902344 142.988281 225.902344 143.140625 Z M 225.902344 143.140625 " fill-opacity="1" fill-rule="nonzero"/><path fill="#abb2bf" d="M 237.3125 143.140625 C 237.3125 143.292969 237.285156 143.4375 237.226562 143.578125 C 237.167969 143.71875 237.085938 143.839844 236.980469 143.949219 C 236.871094 144.054688 236.75 144.136719 236.609375 144.195312 C 236.46875 144.253906 236.324219 144.28125 236.171875 144.28125 C 236.019531 144.28125 235.875 144.253906 235.734375 144.195312 C 235.59375 144.136719 235.472656 144.054688 235.363281 143.949219 C 235.257812 143.839844 235.175781 143.71875 235.117188 143.578125 C 235.058594 143.4375 235.03125 143.292969 235.03125 143.140625 C 235.03125 142.988281 235.058594 142.84375 235.117188 142.703125 C 235.175781 142.5625 235.257812 142.441406 235.363281 142.332031 C 235.472656 142.226562 235.59375 142.144531 235.734375 142.085938 C 235.875 142.027344 236.019531 142 236.171875 142 C 236.324219 142 236.46875 142.027344 236.609375 142.085938 C 236.75 142.144531 236.871094 142.226562 236.980469 142.332031 C 237.085938 142.441406 237.167969 142.5625 237.226562 142.703125 C 237.285156 142.84375 237.3125 142.988281 237.3125 143.140625 Z M 237.3125 143.140625 " fill-opacity="1" fill-rule="nonzero"/><g clip-path="url(#299b2f7633)"><path fill="#abb2bf" d="M 248.726562 143.140625 C 248.726562 143.292969 248.695312 143.4375 248.640625 143.578125 C 248.582031 143.71875 248.5 143.839844 248.390625 143.949219 C 248.285156 144.054688 248.160156 144.136719 248.019531 144.195312 C 247.882812 144.253906 247.734375 144.28125 247.585938 144.28125 C 247.433594 144.28125 247.289062 144.253906 247.148438 144.195312 C 247.007812 144.136719 246.882812 144.054688 246.777344 143.949219 C 246.671875 143.839844 246.589844 143.71875 246.53125 143.578125 C 246.472656 143.4375 246.445312 143.292969 246.445312 143.140625 C 246.445312 142.988281 246.472656 142.84375 246.53125 142.703125 C 246.589844 142.5625 246.671875 142.441406 246.777344 142.332031 C 246.882812 142.226562 247.007812 142.144531 247.148438 142.085938 C 247.289062 142.027344 247.433594 142 247.585938 142 C 247.734375 142 247.882812 142.027344 248.019531 142.085938 C 248.160156 142.144531 248.285156 142.226562 248.390625 142.332031 C 248.5 142.441406 248.582031 142.5625 248.640625 142.703125 C 248.695312 142.84375 248.726562 142.988281 248.726562 143.140625 Z M 248.726562 143.140625 " fill-opacity="1" fill-rule="nonzero"/></g><g clip-path="url(#136b1d4367)"><path fill="#abb2bf" d="M 203.074219 154.554688 C 203.074219 154.703125 203.046875 154.851562 202.988281 154.988281 C 202.929688 155.128906 202.847656 155.253906 202.742188 155.359375 C 202.632812 155.46875 202.511719 155.550781 202.371094 155.605469 C 202.230469 155.664062 202.085938 155.695312 201.933594 155.695312 C 201.785156 155.695312 201.636719 155.664062 201.496094 155.605469 C 201.359375 155.550781 201.234375 155.46875 201.128906 155.359375 C 201.019531 155.253906 200.9375 155.128906 200.878906 154.988281 C 200.824219 154.851562 200.792969 154.703125 200.792969 154.554688 C 200.792969 154.402344 200.824219 154.257812 200.878906 154.117188 C 200.9375 153.976562 201.019531 153.851562 201.128906 153.746094 C 201.234375 153.640625 201.359375 153.554688 201.496094 153.5 C 201.636719 153.441406 201.785156 153.410156 201.933594 153.410156 C 202.085938 153.410156 202.230469 153.441406 202.371094 153.5 C 202.511719 153.554688 202.632812 153.640625 202.742188 153.746094 C 202.847656 153.851562 202.929688 153.976562 202.988281 154.117188 C 203.046875 154.257812 203.074219 154.402344 203.074219 154.554688 Z M 203.074219 154.554688 " fill-opacity="1" fill-rule="nonzero"/></g><path fill="#abb2bf" d="M 214.488281 154.554688 C 214.488281 154.703125 214.460938 154.851562 214.402344 154.988281 C 214.34375 155.128906 214.261719 155.253906 214.152344 155.359375 C 214.046875 155.46875 213.921875 155.550781 213.785156 155.605469 C 213.644531 155.664062 213.5 155.695312 213.347656 155.695312 C 213.195312 155.695312 213.050781 155.664062 212.910156 155.605469 C 212.769531 155.550781 212.648438 155.46875 212.539062 155.359375 C 212.433594 155.253906 212.351562 155.128906 212.292969 154.988281 C 212.234375 154.851562 212.207031 154.703125 212.207031 154.554688 C 212.207031 154.402344 212.234375 154.257812 212.292969 154.117188 C 212.351562 153.976562 212.433594 153.851562 212.539062 153.746094 C 212.648438 153.640625 212.769531 153.554688 212.910156 153.5 C 213.050781 153.441406 213.195312 153.410156 213.347656 153.410156 C 213.5 153.410156 213.644531 153.441406 213.785156 153.5 C 213.921875 153.554688 214.046875 153.640625 214.152344 153.746094 C 214.261719 153.851562 214.34375 153.976562 214.402344 154.117188 C 214.460938 154.257812 214.488281 154.402344 214.488281 154.554688 Z M 214.488281 154.554688 " fill-opacity="1" fill-rule="nonzero"/><path fill="#abb2bf" d="M 225.902344 154.554688 C 225.902344 154.703125 225.871094 154.851562 225.8125 154.988281 C 225.757812 155.128906 225.671875 155.253906 225.566406 155.359375 C 225.460938 155.46875 225.335938 155.550781 225.195312 155.605469 C 225.054688 155.664062 224.910156 155.695312 224.757812 155.695312 C 224.609375 155.695312 224.460938 155.664062 224.324219 155.605469 C 224.183594 155.550781 224.058594 155.46875 223.953125 155.359375 C 223.84375 155.253906 223.761719 155.128906 223.707031 154.988281 C 223.648438 154.851562 223.617188 154.703125 223.617188 154.554688 C 223.617188 154.402344 223.648438 154.257812 223.707031 154.117188 C 223.761719 153.976562 223.84375 153.851562 223.953125 153.746094 C 224.058594 153.640625 224.183594 153.554688 224.324219 153.5 C 224.460938 153.441406 224.609375 153.410156 224.757812 153.410156 C 224.910156 153.410156 225.054688 153.441406 225.195312 153.5 C 225.335938 153.554688 225.460938 153.640625 225.566406 153.746094 C 225.671875 153.851562 225.757812 153.976562 225.8125 154.117188 C 225.871094 154.257812 225.902344 154.402344 225.902344 154.554688 Z M 225.902344 154.554688 " fill-opacity="1" fill-rule="nonzero"/><path fill="#abb2bf" d="M 237.3125 154.554688 C 237.3125 154.703125 237.285156 154.851562 237.226562 154.988281 C 237.167969 155.128906 237.085938 155.253906 236.980469 155.359375 C 236.871094 155.46875 236.75 155.550781 236.609375 155.605469 C 236.46875 155.664062 236.324219 155.695312 236.171875 155.695312 C 236.019531 155.695312 235.875 155.664062 235.734375 155.605469 C 235.59375 155.550781 235.472656 155.46875 235.363281 155.359375 C 235.257812 155.253906 235.175781 155.128906 235.117188 154.988281 C 235.058594 154.851562 235.03125 154.703125 235.03125 154.554688 C 235.03125 154.402344 235.058594 154.257812 235.117188 154.117188 C 235.175781 153.976562 235.257812 153.851562 235.363281 153.746094 C 235.472656 153.640625 235.59375 153.554688 235.734375 153.5 C 235.875 153.441406 236.019531 153.410156 236.171875 153.410156 C 236.324219 153.410156 236.46875 153.441406 236.609375 153.5 C 236.75 153.554688 236.871094 153.640625 236.980469 153.746094 C 237.085938 153.851562 237.167969 153.976562 237.226562 154.117188 C 237.285156 154.257812 237.3125 154.402344 237.3125 154.554688 Z M 237.3125 154.554688 " fill-opacity="1" fill-rule="nonzero"/><g clip-path="url(#863a138412)"><path fill="#abb2bf" d="M 248.726562 154.554688 C 248.726562 154.703125 248.695312 154.851562 248.640625 154.988281 C 248.582031 155.128906 248.5 155.253906 248.390625 155.359375 C 248.285156 155.46875 248.160156 155.550781 248.019531 155.605469 C 247.882812 155.664062 247.734375 155.695312 247.585938 155.695312 C 247.433594 155.695312 247.289062 155.664062 247.148438 155.605469 C 247.007812 155.550781 246.882812 155.46875 246.777344 155.359375 C 246.671875 155.253906 246.589844 155.128906 246.53125 154.988281 C 246.472656 154.851562 246.445312 154.703125 246.445312 154.554688 C 246.445312 154.402344 246.472656 154.257812 246.53125 154.117188 C 246.589844 153.976562 246.671875 153.851562 246.777344 153.746094 C 246.882812 153.640625 247.007812 153.554688 247.148438 153.5 C 247.289062 153.441406 247.433594 153.410156 247.585938 153.410156 C 247.734375 153.410156 247.882812 153.441406 248.019531 153.5 C 248.160156 153.554688 248.285156 153.640625 248.390625 153.746094 C 248.5 153.851562 248.582031 153.976562 248.640625 154.117188 C 248.695312 154.257812 248.726562 154.402344 248.726562 154.554688 Z M 248.726562 154.554688 " fill-opacity="1" fill-rule="nonzero"/></g><g clip-path="url(#91fac51a8e)"><path fill="#abb2bf" d="M 203.074219 165.964844 C 203.074219 166.117188 203.046875 166.261719 202.988281 166.402344 C 202.929688 166.542969 202.847656 166.664062 202.742188 166.773438 C 202.632812 166.878906 202.511719 166.960938 202.371094 167.019531 C 202.230469 167.078125 202.085938 167.105469 201.933594 167.105469 C 201.785156 167.105469 201.636719 167.078125 201.496094 167.019531 C 201.359375 166.960938 201.234375 166.878906 201.128906 166.773438 C 201.019531 166.664062 200.9375 166.542969 200.878906 166.402344 C 200.824219 166.261719 200.792969 166.117188 200.792969 165.964844 C 200.792969 165.8125 200.824219 165.667969 200.878906 165.527344 C 200.9375 165.390625 201.019531 165.265625 201.128906 165.160156 C 201.234375 165.050781 201.359375 164.96875 201.496094 164.910156 C 201.636719 164.851562 201.785156 164.824219 201.933594 164.824219 C 202.085938 164.824219 202.230469 164.851562 202.371094 164.910156 C 202.511719 164.96875 202.632812 165.050781 202.742188 165.160156 C 202.847656 165.265625 202.929688 165.390625 202.988281 165.527344 C 203.046875 165.667969 203.074219 165.8125 203.074219 165.964844 Z M 203.074219 165.964844 " fill-opacity="1" fill-rule="nonzero"/></g><path fill="#abb2bf" d="M 214.488281 165.964844 C 214.488281 166.117188 214.460938 166.261719 214.402344 166.402344 C 214.34375 166.542969 214.261719 166.664062 214.152344 166.773438 C 214.046875 166.878906 213.921875 166.960938 213.785156 167.019531 C 213.644531 167.078125 213.5 167.105469 213.347656 167.105469 C 213.195312 167.105469 213.050781 167.078125 212.910156 167.019531 C 212.769531 166.960938 212.648438 166.878906 212.539062 166.773438 C 212.433594 166.664062 212.351562 166.542969 212.292969 166.402344 C 212.234375 166.261719 212.207031 166.117188 212.207031 165.964844 C 212.207031 165.8125 212.234375 165.667969 212.292969 165.527344 C 212.351562 165.390625 212.433594 165.265625 212.539062 165.160156 C 212.648438 165.050781 212.769531 164.96875 212.910156 164.910156 C 213.050781 164.851562 213.195312 164.824219 213.347656 164.824219 C 213.5 164.824219 213.644531 164.851562 213.785156 164.910156 C 213.921875 164.96875 214.046875 165.050781 214.152344 165.160156 C 214.261719 165.265625 214.34375 165.390625 214.402344 165.527344 C 214.460938 165.667969 214.488281 165.8125 214.488281 165.964844 Z M 214.488281 165.964844 " fill-opacity="1" fill-rule="nonzero"/><path fill="#abb2bf" d="M 225.902344 165.964844 C 225.902344 166.117188 225.871094 166.261719 225.8125 166.402344 C 225.757812 166.542969 225.671875 166.664062 225.566406 166.773438 C 225.460938 166.878906 225.335938 166.960938 225.195312 167.019531 C 225.054688 167.078125 224.910156 167.105469 224.757812 167.105469 C 224.609375 167.105469 224.460938 167.078125 224.324219 167.019531 C 224.183594 166.960938 224.058594 166.878906 223.953125 166.773438 C 223.84375 166.664062 223.761719 166.542969 223.707031 166.402344 C 223.648438 166.261719 223.617188 166.117188 223.617188 165.964844 C 223.617188 165.8125 223.648438 165.667969 223.707031 165.527344 C 223.761719 165.390625 223.84375 165.265625 223.953125 165.160156 C 224.058594 165.050781 224.183594 164.96875 224.324219 164.910156 C 224.460938 164.851562 224.609375 164.824219 224.757812 164.824219 C 224.910156 164.824219 225.054688 164.851562 225.195312 164.910156 C 225.335938 164.96875 225.460938 165.050781 225.566406 165.160156 C 225.671875 165.265625 225.757812 165.390625 225.8125 165.527344 C 225.871094 165.667969 225.902344 165.8125 225.902344 165.964844 Z M 225.902344 165.964844 " fill-opacity="1" fill-rule="nonzero"/><path fill="#abb2bf" d="M 237.3125 165.964844 C 237.3125 166.117188 237.285156 166.261719 237.226562 166.402344 C 237.167969 166.542969 237.085938 166.664062 236.980469 166.773438 C 236.871094 166.878906 236.75 166.960938 236.609375 167.019531 C 236.46875 167.078125 236.324219 167.105469 236.171875 167.105469 C 236.019531 167.105469 235.875 167.078125 235.734375 167.019531 C 235.59375 166.960938 235.472656 166.878906 235.363281 166.773438 C 235.257812 166.664062 235.175781 166.542969 235.117188 166.402344 C 235.058594 166.261719 235.03125 166.117188 235.03125 165.964844 C 235.03125 165.8125 235.058594 165.667969 235.117188 165.527344 C 235.175781 165.390625 235.257812 165.265625 235.363281 165.160156 C 235.472656 165.050781 235.59375 164.96875 235.734375 164.910156 C 235.875 164.851562 236.019531 164.824219 236.171875 164.824219 C 236.324219 164.824219 236.46875 164.851562 236.609375 164.910156 C 236.75 164.96875 236.871094 165.050781 236.980469 165.160156 C 237.085938 165.265625 237.167969 165.390625 237.226562 165.527344 C 237.285156 165.667969 237.3125 165.8125 237.3125 165.964844 Z M 237.3125 165.964844 " fill-opacity="1" fill-rule="nonzero"/><g clip-path="url(#4518f07b1a)"><path fill="#abb2bf" d="M 248.726562 165.964844 C 248.726562 166.117188 248.695312 166.261719 248.640625 166.402344 C 248.582031 166.542969 248.5 166.664062 248.390625 166.773438 C 248.285156 166.878906 248.160156 166.960938 248.019531 167.019531 C 247.882812 167.078125 247.734375 167.105469 247.585938 167.105469 C 247.433594 167.105469 247.289062 167.078125 247.148438 167.019531 C 247.007812 166.960938 246.882812 166.878906 246.777344 166.773438 C 246.671875 166.664062 246.589844 166.542969 246.53125 166.402344 C 246.472656 166.261719 246.445312 166.117188 246.445312 165.964844 C 246.445312 165.8125 246.472656 165.667969 246.53125 165.527344 C 246.589844 165.390625 246.671875 165.265625 246.777344 165.160156 C 246.882812 165.050781 247.007812 164.96875 247.148438 164.910156 C 247.289062 164.851562 247.433594 164.824219 247.585938 164.824219 C 247.734375 164.824219 247.882812 164.851562 248.019531 164.910156 C 248.160156 164.96875 248.285156 165.050781 248.390625 165.160156 C 248.5 165.265625 248.582031 165.390625 248.640625 165.527344 C 248.695312 165.667969 248.726562 165.8125 248.726562 165.964844 Z M 248.726562 165.964844 " fill-opacity="1" fill-rule="nonzero"/></g><g clip-path="url(#a356446840)"><path fill="#abb2bf" d="M 203.074219 177.378906 C 203.074219 177.527344 203.046875 177.675781 202.988281 177.816406 C 202.929688 177.953125 202.847656 178.078125 202.742188 178.183594 C 202.632812 178.292969 202.511719 178.375 202.371094 178.433594 C 202.230469 178.488281 202.085938 178.519531 201.933594 178.519531 C 201.785156 178.519531 201.636719 178.488281 201.496094 178.433594 C 201.359375 178.375 201.234375 178.292969 201.128906 178.183594 C 201.019531 178.078125 200.9375 177.953125 200.878906 177.816406 C 200.824219 177.675781 200.792969 177.527344 200.792969 177.378906 C 200.792969 177.226562 200.824219 177.082031 200.878906 176.941406 C 200.9375 176.800781 201.019531 176.679688 201.128906 176.570312 C 201.234375 176.464844 201.359375 176.382812 201.496094 176.324219 C 201.636719 176.265625 201.785156 176.238281 201.933594 176.238281 C 202.085938 176.238281 202.230469 176.265625 202.371094 176.324219 C 202.511719 176.382812 202.632812 176.464844 202.742188 176.570312 C 202.847656 176.679688 202.929688 176.800781 202.988281 176.941406 C 203.046875 177.082031 203.074219 177.226562 203.074219 177.378906 Z M 203.074219 177.378906 " fill-opacity="1" fill-rule="nonzero"/></g><path fill="#abb2bf" d="M 214.488281 177.378906 C 214.488281 177.527344 214.460938 177.675781 214.402344 177.816406 C 214.34375 177.953125 214.261719 178.078125 214.152344 178.183594 C 214.046875 178.292969 213.921875 178.375 213.785156 178.433594 C 213.644531 178.488281 213.5 178.519531 213.347656 178.519531 C 213.195312 178.519531 213.050781 178.488281 212.910156 178.433594 C 212.769531 178.375 212.648438 178.292969 212.539062 178.183594 C 212.433594 178.078125 212.351562 177.953125 212.292969 177.816406 C 212.234375 177.675781 212.207031 177.527344 212.207031 177.378906 C 212.207031 177.226562 212.234375 177.082031 212.292969 176.941406 C 212.351562 176.800781 212.433594 176.679688 212.539062 176.570312 C 212.648438 176.464844 212.769531 176.382812 212.910156 176.324219 C 213.050781 176.265625 213.195312 176.238281 213.347656 176.238281 C 213.5 176.238281 213.644531 176.265625 213.785156 176.324219 C 213.921875 176.382812 214.046875 176.464844 214.152344 176.570312 C 214.261719 176.679688 214.34375 176.800781 214.402344 176.941406 C 214.460938 177.082031 214.488281 177.226562 214.488281 177.378906 Z M 214.488281 177.378906 " fill-opacity="1" fill-rule="nonzero"/><path fill="#abb2bf" d="M 225.902344 177.378906 C 225.902344 177.527344 225.871094 177.675781 225.8125 177.816406 C 225.757812 177.953125 225.671875 178.078125 225.566406 178.183594 C 225.460938 178.292969 225.335938 178.375 225.195312 178.433594 C 225.054688 178.488281 224.910156 178.519531 224.757812 178.519531 C 224.609375 178.519531 224.460938 178.488281 224.324219 178.433594 C 224.183594 178.375 224.058594 178.292969 223.953125 178.183594 C 223.84375 178.078125 223.761719 177.953125 223.707031 177.816406 C 223.648438 177.675781 223.617188 177.527344 223.617188 177.378906 C 223.617188 177.226562 223.648438 177.082031 223.707031 176.941406 C 223.761719 176.800781 223.84375 176.679688 223.953125 176.570312 C 224.058594 176.464844 224.183594 176.382812 224.324219 176.324219 C 224.460938 176.265625 224.609375 176.238281 224.757812 176.238281 C 224.910156 176.238281 225.054688 176.265625 225.195312 176.324219 C 225.335938 176.382812 225.460938 176.464844 225.566406 176.570312 C 225.671875 176.679688 225.757812 176.800781 225.8125 176.941406 C 225.871094 177.082031 225.902344 177.226562 225.902344 177.378906 Z M 225.902344 177.378906 " fill-opacity="1" fill-rule="nonzero"/><path fill="#abb2bf" d="M 237.3125 177.378906 C 237.3125 177.527344 237.285156 177.675781 237.226562 177.816406 C 237.167969 177.953125 237.085938 178.078125 236.980469 178.183594 C 236.871094 178.292969 236.75 178.375 236.609375 178.433594 C 236.46875 178.488281 236.324219 178.519531 236.171875 178.519531 C 236.019531 178.519531 235.875 178.488281 235.734375 178.433594 C 235.59375 178.375 235.472656 178.292969 235.363281 178.183594 C 235.257812 178.078125 235.175781 177.953125 235.117188 177.816406 C 235.058594 177.675781 235.03125 177.527344 235.03125 177.378906 C 235.03125 177.226562 235.058594 177.082031 235.117188 176.941406 C 235.175781 176.800781 235.257812 176.679688 235.363281 176.570312 C 235.472656 176.464844 235.59375 176.382812 235.734375 176.324219 C 235.875 176.265625 236.019531 176.238281 236.171875 176.238281 C 236.324219 176.238281 236.46875 176.265625 236.609375 176.324219 C 236.75 176.382812 236.871094 176.464844 236.980469 176.570312 C 237.085938 176.679688 237.167969 176.800781 237.226562 176.941406 C 237.285156 177.082031 237.3125 177.226562 237.3125 177.378906 Z M 237.3125 177.378906 " fill-opacity="1" fill-rule="nonzero"/><g clip-path="url(#211696e422)"><path fill="#abb2bf" d="M 248.726562 177.378906 C 248.726562 177.527344 248.695312 177.675781 248.640625 177.816406 C 248.582031 177.953125 248.5 178.078125 248.390625 178.183594 C 248.285156 178.292969 248.160156 178.375 248.019531 178.433594 C 247.882812 178.488281 247.734375 178.519531 247.585938 178.519531 C 247.433594 178.519531 247.289062 178.488281 247.148438 178.433594 C 247.007812 178.375 246.882812 178.292969 246.777344 178.183594 C 246.671875 178.078125 246.589844 177.953125 246.53125 177.816406 C 246.472656 177.675781 246.445312 177.527344 246.445312 177.378906 C 246.445312 177.226562 246.472656 177.082031 246.53125 176.941406 C 246.589844 176.800781 246.671875 176.679688 246.777344 176.570312 C 246.882812 176.464844 247.007812 176.382812 247.148438 176.324219 C 247.289062 176.265625 247.433594 176.238281 247.585938 176.238281 C 247.734375 176.238281 247.882812 176.265625 248.019531 176.324219 C 248.160156 176.382812 248.285156 176.464844 248.390625 176.570312 C 248.5 176.679688 248.582031 176.800781 248.640625 176.941406 C 248.695312 177.082031 248.726562 177.226562 248.726562 177.378906 Z M 248.726562 177.378906 " fill-opacity="1" fill-rule="nonzero"/></g><g clip-path="url(#e07bf69728)"><path fill="#abb2bf" d="M 203.074219 188.789062 C 203.074219 188.941406 203.046875 189.085938 202.988281 189.226562 C 202.929688 189.367188 202.847656 189.492188 202.742188 189.597656 C 202.632812 189.703125 202.511719 189.785156 202.371094 189.84375 C 202.230469 189.902344 202.085938 189.929688 201.933594 189.929688 C 201.785156 189.929688 201.636719 189.902344 201.496094 189.84375 C 201.359375 189.785156 201.234375 189.703125 201.128906 189.597656 C 201.019531 189.492188 200.9375 189.367188 200.878906 189.226562 C 200.824219 189.085938 200.792969 188.941406 200.792969 188.789062 C 200.792969 188.640625 200.824219 188.492188 200.878906 188.355469 C 200.9375 188.214844 201.019531 188.089844 201.128906 187.984375 C 201.234375 187.875 201.359375 187.792969 201.496094 187.734375 C 201.636719 187.679688 201.785156 187.648438 201.933594 187.648438 C 202.085938 187.648438 202.230469 187.679688 202.371094 187.734375 C 202.511719 187.792969 202.632812 187.875 202.742188 187.984375 C 202.847656 188.089844 202.929688 188.214844 202.988281 188.355469 C 203.046875 188.492188 203.074219 188.640625 203.074219 188.789062 Z M 203.074219 188.789062 " fill-opacity="1" fill-rule="nonzero"/></g><g clip-path="url(#b955a6585a)"><path fill="#abb2bf" d="M 214.488281 188.789062 C 214.488281 188.941406 214.460938 189.085938 214.402344 189.226562 C 214.34375 189.367188 214.261719 189.492188 214.152344 189.597656 C 214.046875 189.703125 213.921875 189.785156 213.785156 189.84375 C 213.644531 189.902344 213.5 189.929688 213.347656 189.929688 C 213.195312 189.929688 213.050781 189.902344 212.910156 189.84375 C 212.769531 189.785156 212.648438 189.703125 212.539062 189.597656 C 212.433594 189.492188 212.351562 189.367188 212.292969 189.226562 C 212.234375 189.085938 212.207031 188.941406 212.207031 188.789062 C 212.207031 188.640625 212.234375 188.492188 212.292969 188.355469 C 212.351562 188.214844 212.433594 188.089844 212.539062 187.984375 C 212.648438 187.875 212.769531 187.792969 212.910156 187.734375 C 213.050781 187.679688 213.195312 187.648438 213.347656 187.648438 C 213.5 187.648438 213.644531 187.679688 213.785156 187.734375 C 213.921875 187.792969 214.046875 187.875 214.152344 187.984375 C 214.261719 188.089844 214.34375 188.214844 214.402344 188.355469 C 214.460938 188.492188 214.488281 188.640625 214.488281 188.789062 Z M 214.488281 188.789062 " fill-opacity="1" fill-rule="nonzero"/></g><g clip-path="url(#d5aa0190eb)"><path fill="#abb2bf" d="M 225.902344 188.789062 C 225.902344 188.941406 225.871094 189.085938 225.8125 189.226562 C 225.757812 189.367188 225.671875 189.492188 225.566406 189.597656 C 225.460938 189.703125 225.335938 189.785156 225.195312 189.84375 C 225.054688 189.902344 224.910156 189.929688 224.757812 189.929688 C 224.609375 189.929688 224.460938 189.902344 224.324219 189.84375 C 224.183594 189.785156 224.058594 189.703125 223.953125 189.597656 C 223.84375 189.492188 223.761719 189.367188 223.707031 189.226562 C 223.648438 189.085938 223.617188 188.941406 223.617188 188.789062 C 223.617188 188.640625 223.648438 188.492188 223.707031 188.355469 C 223.761719 188.214844 223.84375 188.089844 223.953125 187.984375 C 224.058594 187.875 224.183594 187.792969 224.324219 187.734375 C 224.460938 187.679688 224.609375 187.648438 224.757812 187.648438 C 224.910156 187.648438 225.054688 187.679688 225.195312 187.734375 C 225.335938 187.792969 225.460938 187.875 225.566406 187.984375 C 225.671875 188.089844 225.757812 188.214844 225.8125 188.355469 C 225.871094 188.492188 225.902344 188.640625 225.902344 188.789062 Z M 225.902344 188.789062 " fill-opacity="1" fill-rule="nonzero"/></g><g clip-path="url(#e50bd76699)"><path fill="#abb2bf" d="M 237.3125 188.789062 C 237.3125 188.941406 237.285156 189.085938 237.226562 189.226562 C 237.167969 189.367188 237.085938 189.492188 236.980469 189.597656 C 236.871094 189.703125 236.75 189.785156 236.609375 189.84375 C 236.46875 189.902344 236.324219 189.929688 236.171875 189.929688 C 236.019531 189.929688 235.875 189.902344 235.734375 189.84375 C 235.59375 189.785156 235.472656 189.703125 235.363281 189.597656 C 235.257812 189.492188 235.175781 189.367188 235.117188 189.226562 C 235.058594 189.085938 235.03125 188.941406 235.03125 188.789062 C 235.03125 188.640625 235.058594 188.492188 235.117188 188.355469 C 235.175781 188.214844 235.257812 188.089844 235.363281 187.984375 C 235.472656 187.875 235.59375 187.792969 235.734375 187.734375 C 235.875 187.679688 236.019531 187.648438 236.171875 187.648438 C 236.324219 187.648438 236.46875 187.679688 236.609375 187.734375 C 236.75 187.792969 236.871094 187.875 236.980469 187.984375 C 237.085938 188.089844 237.167969 188.214844 237.226562 188.355469 C 237.285156 188.492188 237.3125 188.640625 237.3125 188.789062 Z M 237.3125 188.789062 " fill-opacity="1" fill-rule="nonzero"/></g><g clip-path="url(#38f26d2b42)"><path fill="#abb2bf" d="M 248.726562 188.789062 C 248.726562 188.941406 248.695312 189.085938 248.640625 189.226562 C 248.582031 189.367188 248.5 189.492188 248.390625 189.597656 C 248.285156 189.703125 248.160156 189.785156 248.019531 189.84375 C 247.882812 189.902344 247.734375 189.929688 247.585938 189.929688 C 247.433594 189.929688 247.289062 189.902344 247.148438 189.84375 C 247.007812 189.785156 246.882812 189.703125 246.777344 189.597656 C 246.671875 189.492188 246.589844 189.367188 246.53125 189.226562 C 246.472656 189.085938 246.445312 188.941406 246.445312 188.789062 C 246.445312 188.640625 246.472656 188.492188 246.53125 188.355469 C 246.589844 188.214844 246.671875 188.089844 246.777344 187.984375 C 246.882812 187.875 247.007812 187.792969 247.148438 187.734375 C 247.289062 187.679688 247.433594 187.648438 247.585938 187.648438 C 247.734375 187.648438 247.882812 187.679688 248.019531 187.734375 C 248.160156 187.792969 248.285156 187.875 248.390625 187.984375 C 248.5 188.089844 248.582031 188.214844 248.640625 188.355469 C 248.695312 188.492188 248.726562 188.640625 248.726562 188.789062 Z M 248.726562 188.789062 " fill-opacity="1" fill-rule="nonzero"/></g><g mask="url(#f8c5f66d8d)"><g transform="matrix(1, 0, 0, 1, 177, 6)"><g clip-path="url(#c7cc8b4ad8)"><g fill="#ffffff" fill-opacity="1"><g transform="translate(32.587578, 35.431189)"><g/></g></g><g clip-path="url(#558fcfc59c)"><path stroke-linecap="butt" transform="matrix(0.748946, 0, 0, 0.748946, 1.745397, 2.062063)" fill-opacity="1" fill="#000000" fill-rule="nonzero" stroke-linejoin="miter" d="M 0.501635 1.001991 L 0.501635 81.45363 M 81.881662 1.001991 L 81.881662 81.45363 M 0.000930817 0.501287 L 82.382365 0.501287 M 0.000930817 81.954334 L 82.382365 81.954334 " stroke="#ffffff" stroke-width="1" stroke-opacity="1" stroke-miterlimit="4"/></g></g></g></g><g mask="url(#10194f86dc)"><g transform="matrix(1, 0, 0, 1, 104, 103)"><g clip-path="url(#861e67ce9c)"><g fill="#ffffff" fill-opacity="1"><g transform="translate(26.867023, 27.078386)"><g/></g></g><g clip-path="url(#652a883d94)"><path stroke-linecap="butt" transform="matrix(0.748946, 0, 0, 0.748946, 2.285771, 2.601338)" fill-opacity="1" fill="#000000" fill-rule="nonzero" stroke-linejoin="miter" d="M 0.499883 1.001708 L 0.499883 59.161593 M 65.163703 1.001708 L 65.163703 59.161593 M -0.000820641 0.501004 L 65.664406 0.501004 M -0.000820641 59.657081 L 65.664406 59.657081 " stroke="#ffffff" stroke-width="1" stroke-opacity="1" stroke-miterlimit="4"/></g></g></g></g><g mask="url(#b84a6283ca)"><g transform="matrix(1, 0, 0, 1, 12, 136)"><g clip-path="url(#c26a154f2f)"><g clip-path="url(#e5aace00fb)"><g clip-path="url(#4ed3959504)"><path fill="#ee1ad2" d="M 1.03125 0.976562 L 1.03125 48.21875 L 61.878906 48.21875 L 61.878906 0.976562 Z M 1.03125 0.976562 " fill-opacity="1" fill-rule="nonzero"/></g></g></g></g></g></svg>